<mxfile host="app.diagrams.net" modified="2022-10-12T10:29:47.180Z" agent="5.0 (Windows NT 10.0; Win64; x64) AppleWebKit/537.36 (KHTML, like Gecko) Chrome/105.0.0.0 Safari/537.36" etag="PlAGmXp42QbvOiWYxHEL" version="20.0.4" type="github">
  <diagram id="ebTh4-h3dr90-dNFPEcB" name="第 1 页">
    <mxGraphModel dx="2340" dy="1681" grid="1" gridSize="10" guides="1" tooltips="1" connect="1" arrows="1" fold="1" page="1" pageScale="1" pageWidth="850" pageHeight="1100" math="0" shadow="0">
      <root>
        <mxCell id="0" />
        <mxCell id="1" parent="0" />
        <mxCell id="Ij1V0MCkDoJwAxZq359Y-1" value="" style="rounded=0;whiteSpace=wrap;html=1;" parent="1" vertex="1">
          <mxGeometry x="-95" y="-160" width="190" height="60" as="geometry" />
        </mxCell>
        <mxCell id="Ij1V0MCkDoJwAxZq359Y-4" value="IDE&lt;br&gt;（功能引用、布局配置、属性配置）" style="text;html=1;strokeColor=none;fillColor=none;align=center;verticalAlign=middle;whiteSpace=wrap;rounded=0;" parent="1" vertex="1">
          <mxGeometry x="-110" y="-145" width="220" height="30" as="geometry" />
        </mxCell>
        <mxCell id="Ij1V0MCkDoJwAxZq359Y-5" value="JSON协议&lt;br&gt;（抽象描述）" style="rounded=0;whiteSpace=wrap;html=1;" parent="1" vertex="1">
          <mxGeometry x="185" y="-160" width="190" height="60" as="geometry" />
        </mxCell>
        <mxCell id="Ij1V0MCkDoJwAxZq359Y-6" value="页面&lt;br&gt;（渲染还原）" style="rounded=0;whiteSpace=wrap;html=1;" parent="1" vertex="1">
          <mxGeometry x="445" y="-160" width="190" height="60" as="geometry" />
        </mxCell>
        <mxCell id="Ij1V0MCkDoJwAxZq359Y-7" value="" style="endArrow=classic;html=1;rounded=0;entryX=0;entryY=0.5;entryDx=0;entryDy=0;" parent="1" target="Ij1V0MCkDoJwAxZq359Y-5" edge="1">
          <mxGeometry width="50" height="50" relative="1" as="geometry">
            <mxPoint x="95" y="-130" as="sourcePoint" />
            <mxPoint x="145" y="-180" as="targetPoint" />
          </mxGeometry>
        </mxCell>
        <mxCell id="Ij1V0MCkDoJwAxZq359Y-9" value="" style="endArrow=classic;html=1;rounded=0;exitX=1;exitY=0.5;exitDx=0;exitDy=0;" parent="1" source="Ij1V0MCkDoJwAxZq359Y-5" edge="1">
          <mxGeometry width="50" height="50" relative="1" as="geometry">
            <mxPoint x="395" y="-80" as="sourcePoint" />
            <mxPoint x="445" y="-130" as="targetPoint" />
          </mxGeometry>
        </mxCell>
        <mxCell id="Ij1V0MCkDoJwAxZq359Y-10" value="" style="rounded=0;whiteSpace=wrap;html=1;" parent="1" vertex="1">
          <mxGeometry x="-95" y="-70" width="740" height="290" as="geometry" />
        </mxCell>
        <mxCell id="Ij1V0MCkDoJwAxZq359Y-12" value="物料库" style="rounded=1;whiteSpace=wrap;html=1;" parent="1" vertex="1">
          <mxGeometry x="-65" y="-40" width="130" height="230" as="geometry" />
        </mxCell>
        <mxCell id="Ij1V0MCkDoJwAxZq359Y-13" value="" style="rounded=1;whiteSpace=wrap;html=1;" parent="1" vertex="1">
          <mxGeometry x="95" y="-40" width="350" height="230" as="geometry" />
        </mxCell>
        <mxCell id="Ij1V0MCkDoJwAxZq359Y-14" value="编辑面板" style="rounded=1;whiteSpace=wrap;html=1;" parent="1" vertex="1">
          <mxGeometry x="475" y="-40" width="120" height="230" as="geometry" />
        </mxCell>
        <mxCell id="Ij1V0MCkDoJwAxZq359Y-15" value="渲染引擎" style="rounded=1;whiteSpace=wrap;html=1;dashed=1;" parent="1" vertex="1">
          <mxGeometry x="110" y="-30" width="310" height="210" as="geometry" />
        </mxCell>
        <mxCell id="Ij1V0MCkDoJwAxZq359Y-16" value="概念架构" style="rounded=0;whiteSpace=wrap;html=1;" parent="1" vertex="1">
          <mxGeometry x="110" y="510" width="120" height="60" as="geometry" />
        </mxCell>
        <mxCell id="Ij1V0MCkDoJwAxZq359Y-17" value="产品逻辑" style="rounded=0;whiteSpace=wrap;html=1;" parent="1" vertex="1">
          <mxGeometry x="110" y="620" width="120" height="60" as="geometry" />
        </mxCell>
        <mxCell id="Ij1V0MCkDoJwAxZq359Y-18" value="设计落地" style="rounded=0;whiteSpace=wrap;html=1;" parent="1" vertex="1">
          <mxGeometry x="110" y="750" width="120" height="60" as="geometry" />
        </mxCell>
        <mxCell id="Ij1V0MCkDoJwAxZq359Y-19" value="技术架构" style="rounded=0;whiteSpace=wrap;html=1;" parent="1" vertex="1">
          <mxGeometry x="110" y="880" width="120" height="60" as="geometry" />
        </mxCell>
        <mxCell id="Ij1V0MCkDoJwAxZq359Y-20" value="通用配置" style="rounded=0;whiteSpace=wrap;html=1;" parent="1" vertex="1">
          <mxGeometry x="470" y="720" width="120" height="60" as="geometry" />
        </mxCell>
        <mxCell id="Ij1V0MCkDoJwAxZq359Y-21" value="产品个性配置" style="rounded=0;whiteSpace=wrap;html=1;" parent="1" vertex="1">
          <mxGeometry x="470" y="880" width="120" height="60" as="geometry" />
        </mxCell>
        <mxCell id="Ij1V0MCkDoJwAxZq359Y-23" value="传统开发模式" style="text;html=1;strokeColor=none;fillColor=none;align=center;verticalAlign=middle;whiteSpace=wrap;rounded=0;dashed=1;" parent="1" vertex="1">
          <mxGeometry x="125" y="470" width="90" height="30" as="geometry" />
        </mxCell>
        <mxCell id="Ij1V0MCkDoJwAxZq359Y-24" value="产品经理、设计师" style="text;html=1;strokeColor=none;fillColor=none;align=center;verticalAlign=middle;whiteSpace=wrap;rounded=0;dashed=1;" parent="1" vertex="1">
          <mxGeometry x="-105" y="760" width="110" height="30" as="geometry" />
        </mxCell>
        <mxCell id="Ij1V0MCkDoJwAxZq359Y-25" value="产品、行业架构师" style="text;html=1;strokeColor=none;fillColor=none;align=center;verticalAlign=middle;whiteSpace=wrap;rounded=0;dashed=1;" parent="1" vertex="1">
          <mxGeometry x="-100" y="585" width="100" height="30" as="geometry" />
        </mxCell>
        <mxCell id="Ij1V0MCkDoJwAxZq359Y-26" value="" style="endArrow=classic;html=1;rounded=0;exitX=0.5;exitY=1;exitDx=0;exitDy=0;entryX=0.5;entryY=0;entryDx=0;entryDy=0;" parent="1" source="Ij1V0MCkDoJwAxZq359Y-16" target="Ij1V0MCkDoJwAxZq359Y-17" edge="1">
          <mxGeometry width="50" height="50" relative="1" as="geometry">
            <mxPoint x="590" y="840" as="sourcePoint" />
            <mxPoint x="640" y="790" as="targetPoint" />
          </mxGeometry>
        </mxCell>
        <mxCell id="Ij1V0MCkDoJwAxZq359Y-27" value="" style="endArrow=classic;html=1;rounded=0;exitX=0.5;exitY=1;exitDx=0;exitDy=0;entryX=0.5;entryY=0;entryDx=0;entryDy=0;" parent="1" target="Ij1V0MCkDoJwAxZq359Y-18" edge="1">
          <mxGeometry width="50" height="50" relative="1" as="geometry">
            <mxPoint x="169.5" y="680" as="sourcePoint" />
            <mxPoint x="169.5" y="730" as="targetPoint" />
          </mxGeometry>
        </mxCell>
        <mxCell id="Ij1V0MCkDoJwAxZq359Y-29" value="" style="endArrow=classic;html=1;rounded=0;exitX=0.5;exitY=1;exitDx=0;exitDy=0;entryX=0.5;entryY=0;entryDx=0;entryDy=0;" parent="1" edge="1">
          <mxGeometry width="50" height="50" relative="1" as="geometry">
            <mxPoint x="169.5" y="810" as="sourcePoint" />
            <mxPoint x="170" y="880" as="targetPoint" />
          </mxGeometry>
        </mxCell>
        <mxCell id="Ij1V0MCkDoJwAxZq359Y-31" value="" style="endArrow=none;dashed=1;html=1;rounded=0;" parent="1" edge="1">
          <mxGeometry width="50" height="50" relative="1" as="geometry">
            <mxPoint x="-110" y="720" as="sourcePoint" />
            <mxPoint x="320" y="721" as="targetPoint" />
          </mxGeometry>
        </mxCell>
        <mxCell id="Ij1V0MCkDoJwAxZq359Y-32" value="" style="endArrow=none;dashed=1;html=1;rounded=0;" parent="1" edge="1">
          <mxGeometry width="50" height="50" relative="1" as="geometry">
            <mxPoint x="380" y="1590" as="sourcePoint" />
            <mxPoint x="380" y="480" as="targetPoint" />
          </mxGeometry>
        </mxCell>
        <mxCell id="Ij1V0MCkDoJwAxZq359Y-33" value="" style="endArrow=none;dashed=1;html=1;rounded=0;" parent="1" edge="1">
          <mxGeometry width="50" height="50" relative="1" as="geometry">
            <mxPoint x="-120" y="840" as="sourcePoint" />
            <mxPoint x="320" y="841" as="targetPoint" />
          </mxGeometry>
        </mxCell>
        <mxCell id="Ij1V0MCkDoJwAxZq359Y-34" value="" style="endArrow=none;dashed=1;html=1;rounded=0;" parent="1" edge="1">
          <mxGeometry width="50" height="50" relative="1" as="geometry">
            <mxPoint x="-100" y="970" as="sourcePoint" />
            <mxPoint x="320" y="971" as="targetPoint" />
          </mxGeometry>
        </mxCell>
        <mxCell id="Ij1V0MCkDoJwAxZq359Y-35" value="web架构师" style="text;html=1;strokeColor=none;fillColor=none;align=center;verticalAlign=middle;whiteSpace=wrap;rounded=0;dashed=1;" parent="1" vertex="1">
          <mxGeometry x="-110" y="895" width="110" height="30" as="geometry" />
        </mxCell>
        <mxCell id="Ij1V0MCkDoJwAxZq359Y-37" value="测试" style="rounded=0;whiteSpace=wrap;html=1;" parent="1" vertex="1">
          <mxGeometry x="110" y="1220" width="120" height="60" as="geometry" />
        </mxCell>
        <mxCell id="Ij1V0MCkDoJwAxZq359Y-38" value="后台开发" style="rounded=0;whiteSpace=wrap;html=1;" parent="1" vertex="1">
          <mxGeometry x="215" y="1060" width="120" height="60" as="geometry" />
        </mxCell>
        <mxCell id="Ij1V0MCkDoJwAxZq359Y-39" value="前端开发" style="rounded=0;whiteSpace=wrap;html=1;" parent="1" vertex="1">
          <mxGeometry x="5" y="1060" width="120" height="60" as="geometry" />
        </mxCell>
        <mxCell id="Ij1V0MCkDoJwAxZq359Y-43" value="" style="edgeStyle=elbowEdgeStyle;elbow=vertical;endArrow=classic;html=1;rounded=0;exitX=0.5;exitY=1;exitDx=0;exitDy=0;entryX=0.5;entryY=0;entryDx=0;entryDy=0;" parent="1" source="Ij1V0MCkDoJwAxZq359Y-19" target="Ij1V0MCkDoJwAxZq359Y-39" edge="1">
          <mxGeometry width="50" height="50" relative="1" as="geometry">
            <mxPoint x="580" y="1250" as="sourcePoint" />
            <mxPoint x="630" y="1200" as="targetPoint" />
          </mxGeometry>
        </mxCell>
        <mxCell id="Ij1V0MCkDoJwAxZq359Y-44" value="" style="edgeStyle=elbowEdgeStyle;elbow=vertical;endArrow=classic;html=1;rounded=0;entryX=0.5;entryY=0;entryDx=0;entryDy=0;" parent="1" target="Ij1V0MCkDoJwAxZq359Y-38" edge="1">
          <mxGeometry width="50" height="50" relative="1" as="geometry">
            <mxPoint x="170" y="940" as="sourcePoint" />
            <mxPoint x="70" y="1110" as="targetPoint" />
          </mxGeometry>
        </mxCell>
        <mxCell id="Ij1V0MCkDoJwAxZq359Y-45" value="" style="edgeStyle=elbowEdgeStyle;elbow=vertical;endArrow=classic;html=1;rounded=0;exitX=0.5;exitY=1;exitDx=0;exitDy=0;entryX=0.5;entryY=0;entryDx=0;entryDy=0;" parent="1" source="Ij1V0MCkDoJwAxZq359Y-39" target="Ij1V0MCkDoJwAxZq359Y-37" edge="1">
          <mxGeometry width="50" height="50" relative="1" as="geometry">
            <mxPoint x="580" y="1350" as="sourcePoint" />
            <mxPoint x="630" y="1300" as="targetPoint" />
          </mxGeometry>
        </mxCell>
        <mxCell id="Ij1V0MCkDoJwAxZq359Y-46" value="" style="edgeStyle=elbowEdgeStyle;elbow=vertical;endArrow=classic;html=1;rounded=0;exitX=0.5;exitY=1;exitDx=0;exitDy=0;entryX=0.5;entryY=0;entryDx=0;entryDy=0;" parent="1" source="Ij1V0MCkDoJwAxZq359Y-38" target="Ij1V0MCkDoJwAxZq359Y-37" edge="1">
          <mxGeometry width="50" height="50" relative="1" as="geometry">
            <mxPoint x="75" y="1130" as="sourcePoint" />
            <mxPoint x="140" y="1220" as="targetPoint" />
          </mxGeometry>
        </mxCell>
        <mxCell id="Ij1V0MCkDoJwAxZq359Y-47" value="" style="endArrow=none;dashed=1;html=1;rounded=0;" parent="1" edge="1">
          <mxGeometry width="50" height="50" relative="1" as="geometry">
            <mxPoint x="-110" y="1200" as="sourcePoint" />
            <mxPoint x="320" y="1201" as="targetPoint" />
          </mxGeometry>
        </mxCell>
        <mxCell id="Ij1V0MCkDoJwAxZq359Y-48" value="开发工程师" style="text;html=1;strokeColor=none;fillColor=none;align=center;verticalAlign=middle;whiteSpace=wrap;rounded=0;dashed=1;" parent="1" vertex="1">
          <mxGeometry x="-105" y="1070" width="110" height="30" as="geometry" />
        </mxCell>
        <mxCell id="Ij1V0MCkDoJwAxZq359Y-49" value="OA、研发中台（内部）" style="text;html=1;strokeColor=none;fillColor=none;align=center;verticalAlign=middle;whiteSpace=wrap;rounded=0;dashed=1;" parent="1" vertex="1">
          <mxGeometry x="-130" y="1270" width="130" height="30" as="geometry" />
        </mxCell>
        <mxCell id="Ij1V0MCkDoJwAxZq359Y-50" value="发布上线" style="rounded=0;whiteSpace=wrap;html=1;" parent="1" vertex="1">
          <mxGeometry x="110" y="1320" width="120" height="60" as="geometry" />
        </mxCell>
        <mxCell id="Ij1V0MCkDoJwAxZq359Y-51" value="" style="endArrow=classic;html=1;rounded=0;entryX=0.5;entryY=0;entryDx=0;entryDy=0;" parent="1" source="Ij1V0MCkDoJwAxZq359Y-37" target="Ij1V0MCkDoJwAxZq359Y-50" edge="1">
          <mxGeometry width="50" height="50" relative="1" as="geometry">
            <mxPoint x="310" y="1340" as="sourcePoint" />
            <mxPoint x="180" y="890" as="targetPoint" />
          </mxGeometry>
        </mxCell>
        <mxCell id="Ij1V0MCkDoJwAxZq359Y-52" value="低代码" style="text;html=1;strokeColor=none;fillColor=none;align=center;verticalAlign=middle;whiteSpace=wrap;rounded=0;dashed=1;" parent="1" vertex="1">
          <mxGeometry x="460" y="470" width="90" height="30" as="geometry" />
        </mxCell>
        <mxCell id="Ij1V0MCkDoJwAxZq359Y-54" value="" style="edgeStyle=segmentEdgeStyle;endArrow=classic;html=1;rounded=0;exitX=1;exitY=0.5;exitDx=0;exitDy=0;entryX=0.5;entryY=0;entryDx=0;entryDy=0;" parent="1" source="Ij1V0MCkDoJwAxZq359Y-17" target="Ij1V0MCkDoJwAxZq359Y-20" edge="1">
          <mxGeometry width="50" height="50" relative="1" as="geometry">
            <mxPoint x="580" y="950" as="sourcePoint" />
            <mxPoint x="630" y="900" as="targetPoint" />
          </mxGeometry>
        </mxCell>
        <mxCell id="Ij1V0MCkDoJwAxZq359Y-56" value="" style="endArrow=classic;html=1;rounded=0;exitX=0.5;exitY=1;exitDx=0;exitDy=0;entryX=0.5;entryY=0;entryDx=0;entryDy=0;" parent="1" target="Ij1V0MCkDoJwAxZq359Y-21" edge="1">
          <mxGeometry width="50" height="50" relative="1" as="geometry">
            <mxPoint x="530" y="780" as="sourcePoint" />
            <mxPoint x="530.5" y="850" as="targetPoint" />
          </mxGeometry>
        </mxCell>
        <mxCell id="Ij1V0MCkDoJwAxZq359Y-61" value="" style="edgeStyle=segmentEdgeStyle;endArrow=classic;html=1;rounded=0;exitX=0.5;exitY=1;exitDx=0;exitDy=0;entryX=1;entryY=0.5;entryDx=0;entryDy=0;" parent="1" source="Ij1V0MCkDoJwAxZq359Y-21" edge="1" target="Ij1V0MCkDoJwAxZq359Y-50">
          <mxGeometry width="50" height="50" relative="1" as="geometry">
            <mxPoint x="390" y="1030" as="sourcePoint" />
            <mxPoint x="230" y="1370" as="targetPoint" />
            <Array as="points">
              <mxPoint x="530" y="1350" />
            </Array>
          </mxGeometry>
        </mxCell>
        <mxCell id="Ij1V0MCkDoJwAxZq359Y-62" value="" style="shape=curlyBracket;whiteSpace=wrap;html=1;rounded=1;flipH=1;" parent="1" vertex="1">
          <mxGeometry x="590" y="750" width="60" height="160" as="geometry" />
        </mxCell>
        <mxCell id="Ij1V0MCkDoJwAxZq359Y-63" value="" style="rounded=0;whiteSpace=wrap;html=1;" parent="1" vertex="1">
          <mxGeometry x="670" y="640" width="240" height="600" as="geometry" />
        </mxCell>
        <mxCell id="Ij1V0MCkDoJwAxZq359Y-64" value="通用平台" style="text;html=1;strokeColor=none;fillColor=none;align=center;verticalAlign=middle;whiteSpace=wrap;rounded=0;" parent="1" vertex="1">
          <mxGeometry x="760" y="670" width="60" height="30" as="geometry" />
        </mxCell>
        <mxCell id="Ij1V0MCkDoJwAxZq359Y-65" value="通用逻辑" style="rounded=0;whiteSpace=wrap;html=1;" parent="1" vertex="1">
          <mxGeometry x="730" y="860" width="120" height="60" as="geometry" />
        </mxCell>
        <mxCell id="Ij1V0MCkDoJwAxZq359Y-66" value="设计规范" style="rounded=0;whiteSpace=wrap;html=1;" parent="1" vertex="1">
          <mxGeometry x="730" y="730" width="120" height="60" as="geometry" />
        </mxCell>
        <mxCell id="Ij1V0MCkDoJwAxZq359Y-67" value="通用配置" style="rounded=0;whiteSpace=wrap;html=1;" parent="1" vertex="1">
          <mxGeometry x="480" y="730" width="120" height="60" as="geometry" />
        </mxCell>
        <mxCell id="Ij1V0MCkDoJwAxZq359Y-68" value="可视化配置" style="rounded=0;whiteSpace=wrap;html=1;" parent="1" vertex="1">
          <mxGeometry x="730" y="990" width="120" height="60" as="geometry" />
        </mxCell>
        <mxCell id="Ij1V0MCkDoJwAxZq359Y-69" value="个性化接口" style="rounded=0;whiteSpace=wrap;html=1;" parent="1" vertex="1">
          <mxGeometry x="730" y="1080" width="120" height="60" as="geometry" />
        </mxCell>
        <mxCell id="Ij1V0MCkDoJwAxZq359Y-70" value="" style="endArrow=none;dashed=1;html=1;rounded=0;" parent="1" edge="1">
          <mxGeometry width="50" height="50" relative="1" as="geometry">
            <mxPoint x="730" y="829.47" as="sourcePoint" />
            <mxPoint x="1150" y="830.47" as="targetPoint" />
          </mxGeometry>
        </mxCell>
        <mxCell id="Ij1V0MCkDoJwAxZq359Y-71" value="" style="endArrow=none;dashed=1;html=1;rounded=0;" parent="1" edge="1">
          <mxGeometry width="50" height="50" relative="1" as="geometry">
            <mxPoint x="730" y="950" as="sourcePoint" />
            <mxPoint x="1150" y="951" as="targetPoint" />
          </mxGeometry>
        </mxCell>
        <mxCell id="Ij1V0MCkDoJwAxZq359Y-73" value="开发工程师" style="text;html=1;strokeColor=none;fillColor=none;align=center;verticalAlign=middle;whiteSpace=wrap;rounded=0;dashed=1;" parent="1" vertex="1">
          <mxGeometry x="1040" y="1040" width="110" height="30" as="geometry" />
        </mxCell>
        <mxCell id="Ij1V0MCkDoJwAxZq359Y-75" value="技术架构师" style="text;html=1;strokeColor=none;fillColor=none;align=center;verticalAlign=middle;whiteSpace=wrap;rounded=0;dashed=1;" parent="1" vertex="1">
          <mxGeometry x="1040" y="880" width="110" height="30" as="geometry" />
        </mxCell>
        <mxCell id="Ij1V0MCkDoJwAxZq359Y-76" value="产品经理、设计师" style="text;html=1;strokeColor=none;fillColor=none;align=center;verticalAlign=middle;whiteSpace=wrap;rounded=0;dashed=1;" parent="1" vertex="1">
          <mxGeometry x="1043" y="745" width="110" height="30" as="geometry" />
        </mxCell>
        <mxCell id="Ij1V0MCkDoJwAxZq359Y-78" value="设计一致性原则" style="text;html=1;strokeColor=none;fillColor=none;align=center;verticalAlign=middle;whiteSpace=wrap;rounded=0;dashed=1;" parent="1" vertex="1">
          <mxGeometry x="1170" y="745" width="110" height="30" as="geometry" />
        </mxCell>
        <mxCell id="Ij1V0MCkDoJwAxZq359Y-79" value="" style="endArrow=none;dashed=1;html=1;rounded=0;" parent="1" edge="1">
          <mxGeometry width="50" height="50" relative="1" as="geometry">
            <mxPoint x="729.9999999999995" y="1210" as="sourcePoint" />
            <mxPoint x="1150" y="1211" as="targetPoint" />
          </mxGeometry>
        </mxCell>
        <mxCell id="Ij1V0MCkDoJwAxZq359Y-80" value="产品个性配置" style="rounded=0;whiteSpace=wrap;html=1;" parent="1" vertex="1">
          <mxGeometry x="480" y="890" width="120" height="60" as="geometry" />
        </mxCell>
      </root>
    </mxGraphModel>
  </diagram>
</mxfile>
